<svg width="275" height="19" viewBox="0 0 275 19" fill="none" xmlns="http://www.w3.org/2000/svg">
<path d="M19.7001 9.34747L11.126 0.777805L10.5513 0.203092C10.4204 0.0730081 10.2433 0 10.0587 0C9.87411 0 9.69703 0.0730081 9.56608 0.203092L0.417259 9.34747C0.28308 9.48113 0.177036 9.64031 0.105387 9.81562C0.0337377 9.99093 -0.00206504 10.1788 9.19757e-05 10.3682C0.00896786 11.1493 0.659127 11.7728 1.4402 11.7728H2.38327V19H17.7341V11.7728H18.6971C19.0766 11.7728 19.4338 11.6241 19.7023 11.3556C19.8345 11.2239 19.9393 11.0672 20.0105 10.8946C20.0817 10.7221 20.118 10.5371 20.1173 10.3504C20.1173 9.97322 19.9686 9.61597 19.7001 9.34747ZM11.3013 17.4023H8.81607V12.8756H11.3013V17.4023ZM16.1365 10.1751V17.4023H12.7215V12.3431C12.7215 11.8527 12.3243 11.4555 11.8339 11.4555H8.28351C7.79312 11.4555 7.39592 11.8527 7.39592 12.3431V17.4023H3.98093V10.1751H1.85071L10.0609 1.97161L10.5735 2.48419L18.2689 10.1751H16.1365Z" fill="white"/>
<path d="M97.0625 14.5V16.6562M97.0625 3V5.15625M97.0625 8.75V10.9062M87 3H104.969V7.3125C104.969 7.3125 102.094 7.3125 102.094 9.82812C102.094 12.3438 104.969 12.3438 104.969 12.3438V16.6562H87V12.3438C87 12.3438 89.875 12.3438 89.875 9.82812C89.875 7.3125 87 7.3125 87 7.3125V3Z" stroke="white" stroke-width="1.5" stroke-linecap="round" stroke-linejoin="round"/>
<path d="M183.652 18.4531C183.287 18.8177 182.836 19 182.297 19C181.758 19 181.306 18.8177 180.941 18.4531L172.571 10.0826C172.396 9.90822 172.257 9.70213 172.154 9.46433C172.051 9.22653 171.999 8.97288 172 8.70338V1.90238C172 1.37922 172.186 0.931531 172.559 0.559299C172.932 0.187067 173.38 0.000634126 173.902 0H180.703C180.973 0 181.227 0.0516814 181.464 0.155044C181.702 0.258406 181.908 0.396963 182.083 0.570713L190.453 8.96496C190.818 9.32958 191 9.77759 191 10.309C191 10.8404 190.818 11.2881 190.453 11.6521L183.652 18.4531ZM182.297 17.1214L189.098 10.3204L180.703 1.90238H173.902V8.70338L182.297 17.1214ZM176.28 5.70713C176.677 5.70713 177.014 5.56858 177.291 5.29146C177.569 5.01435 177.708 4.67731 177.707 4.28035C177.707 3.88402 177.569 3.5473 177.291 3.27019C177.014 2.99307 176.677 2.8542 176.28 2.85357C175.884 2.85357 175.547 2.99244 175.27 3.27019C174.993 3.54794 174.854 3.88466 174.854 4.28035C174.854 4.67668 174.992 5.01372 175.27 5.29146C175.548 5.56921 175.885 5.70777 176.28 5.70713Z" fill="white"/>
<path d="M263.5 5C263.5 4.60603 263.578 4.21593 263.728 3.85195C263.879 3.48797 264.1 3.15726 264.379 2.87868C264.657 2.6001 264.988 2.37913 265.352 2.22836C265.716 2.0776 266.106 2 266.5 2C266.894 2 267.284 2.0776 267.648 2.22836C268.012 2.37913 268.343 2.6001 268.621 2.87868C268.9 3.15726 269.121 3.48797 269.272 3.85195C269.422 4.21593 269.5 4.60603 269.5 5C269.5 5.79565 269.184 6.55871 268.621 7.12132C268.059 7.68393 267.296 8 266.5 8C265.704 8 264.941 7.68393 264.379 7.12132C263.816 6.55871 263.5 5.79565 263.5 5ZM266.5 0C265.174 0 263.902 0.526784 262.964 1.46447C262.027 2.40215 261.5 3.67392 261.5 5C261.5 6.32608 262.027 7.59785 262.964 8.53553C263.902 9.47322 265.174 10 266.5 10C267.826 10 269.098 9.47322 270.036 8.53553C270.973 7.59785 271.5 6.32608 271.5 5C271.5 3.67392 270.973 2.40215 270.036 1.46447C269.098 0.526784 267.826 0 266.5 0ZM258 17C258 15.6739 258.527 14.4021 259.464 13.4645C260.402 12.5268 261.674 12 263 12H270C271.326 12 272.598 12.5268 273.536 13.4645C274.473 14.4021 275 15.6739 275 17V19H273V17C273 16.2044 272.684 15.4413 272.121 14.8787C271.559 14.3161 270.796 14 270 14H263C262.204 14 261.441 14.3161 260.879 14.8787C260.316 15.4413 260 16.2044 260 17V19H258V18V17Z" fill="white"/>
</svg>
